#N canvas 392 85 499 318 12;
#X text 41 39 experimental object browser plugin;
#X text 36 88 this adds an object menu for inserting Vanilla objects into the patch when right clicking anywhere on the patch. Right click and see 'add object' entry.;
#X text 40 163 I don't plan to officially release this plug in but incorporate it into the Pd Vanilla distribution by default. This is just for experimental tests.;
#X text 121 234 Please restart Pd to test it.;
#X text 264 275 Alexandre Torres Porres \, 2023;
